# xmcd CD database file
#
# Track frame offsets:
#	150
#	18295
#	33910
#	50247
#	59992
#	70087
#	86842
#	101112
#	113470
#	121150
#	133462
#	148737
#	162650
#	178597
#	196950
#	206797
#	232750
#	242977
#	260870
#
# Disc length: 3730 seconds
#
# Revision: 10
# Processed by: cddbd v1.5.2PL0 Copyright (c) Steve Scherf et al.
# Submitted via: CDex 1.70beta3
#
DISCID=280e9013
DTITLE=すぎやまこういち - 交響組曲「ドラゴンクエストⅠ・Ⅱ」
DYEAR=2000
DGENRE=Game
TTITLE0=序曲
TTITLE1=ラダトーム城
TTITLE2=街の人々
TTITLE3=広野を行く
TTITLE4=戦闘
TTITLE5=洞窟
TTITLE6=竜王
TTITLE7=フィナーレ
TTITLE8=ドラゴンクエスト・マーチ
TTITLE9=Love Song探して
TTITLE10=パストラール〜カタストロフ
TTITLE11=王城
TTITLE12=街の賑わい
TTITLE13=恐怖の地下洞〜魔の塔
TTITLE14=レクイエム
TTITLE15=遥かなる旅路〜広野を行く〜果てしなき世界
TTITLE16=海原を行く
TTITLE17=戦い〜死を賭して
TTITLE18=この道わが旅
EXTD=YEAR: 2000
EXTT0=
EXTT1=
EXTT2=
EXTT3=
EXTT4=
EXTT5=
EXTT6=
EXTT7=
EXTT8=
EXTT9=
EXTT10=
EXTT11=
EXTT12=
EXTT13=
EXTT14=
EXTT15=
EXTT16=
EXTT17=
EXTT18=
PLAYORDER=
